<?xml version="1.0" encoding="UTF-8" standalone="no"?>
<!-- Created with Inkscape (http://www.inkscape.org/) -->

<svg
   xmlns:dc="http://purl.org/dc/elements/1.1/"
   xmlns:cc="http://creativecommons.org/ns#"
   xmlns:rdf="http://www.w3.org/1999/02/22-rdf-syntax-ns#"
   xmlns:svg="http://www.w3.org/2000/svg"
   xmlns="http://www.w3.org/2000/svg"
   xmlns:sodipodi="http://sodipodi.sourceforge.net/DTD/sodipodi-0.dtd"
   xmlns:inkscape="http://www.inkscape.org/namespaces/inkscape"
   version="1.1"
   id="svg866"
   width="1631"
   height="101"
   viewBox="0 0 1631 101"
   sodipodi:docname="classheader.svg"
   inkscape:version="0.92.2 2405546, 2018-03-11">
  <metadata
     id="metadata872">
    <rdf:RDF>
      <cc:Work
         rdf:about="">
        <dc:format>image/svg+xml</dc:format>
        <dc:type
           rdf:resource="http://purl.org/dc/dcmitype/StillImage" />
        <dc:title></dc:title>
      </cc:Work>
    </rdf:RDF>
  </metadata>
  <defs
     id="defs870" />
  <sodipodi:namedview
     pagecolor="#ffffff"
     bordercolor="#666666"
     borderopacity="1"
     objecttolerance="10"
     gridtolerance="10"
     guidetolerance="10"
     inkscape:pageopacity="0"
     inkscape:pageshadow="2"
     inkscape:window-width="1920"
     inkscape:window-height="1011"
     id="namedview868"
     showgrid="false"
     inkscape:zoom="8"
     inkscape:cx="1536.102"
     inkscape:cy="65.000503"
     inkscape:window-x="0"
     inkscape:window-y="27"
     inkscape:window-maximized="1"
     inkscape:current-layer="svg866" />
  <path
     style="fill:none;stroke:#000200;stroke-width:4;stroke-linecap:butt;stroke-linejoin:miter;stroke-miterlimit:4;stroke-dasharray:none;stroke-opacity:1"
     d="M 50.699074,77.268518 C 43.516394,77.418984 37.806223,70.088227 37.75463,59.469908 58.58132,59.226214 74.86233,44.628785 74.587963,19.018518 L 1565.1991,19.557871 c 0.4695,26.939228 16.9087,38.314105 37.2153,39.912037 0.4134,11.557557 -5.9257,15.364825 -14.0232,19.416666 0,0 0.7071,-12.78937 1.4142,-34.002573 0.1714,-7.339221 -6.0011,-13.236526 -15.312,-13.190711 h -43.8128 c -11.7342,14.089332 -18.6823,12.183542 -30.6551,12.270253 H 138.59293 C 127.01538,43.730984 114.28987,45.386201 104.0372,34.704364 H 62.932503 c -6.110354,0.328467 -11.345707,5.477642 -11.581061,11.581061 z"
     id="path1419"
     inkscape:connector-curvature="0"
     sodipodi:nodetypes="ccccccccccccccc" />
</svg>
